<svg xmlns="http://www.w3.org/2000/svg" width="66" height="56" viewBox="0 0 66 56">
  <defs>
    <style>
      .cls-1, .cls-2 {
        fill: #ffc552;
        fill-rule: evenodd;
      }

      .cls-2 {
        opacity: 0.3;
      }
    </style>
  </defs>
  <path id="Color_Fill_1" data-name="Color Fill 1" class="cls-1" d="M32,34V50s-3.384,6.973-10,0V48H18s-6.38-3.054-2-8c0,0-12.607-7.8-2-13h2l1,2s3.162,2.127,5-1c0,0,1.751-3.8-2-5a3.057,3.057,0,0,0-3,1l-1,1H11S4.3,15.141,17,8h1V7s8.232-8.329,14-2V19H28V13H22s-3.27-4.878-6,1c0,0-.511,5,4,4,0,0,1.987-.307,2-2h4v6h6v9H23v8s-4.393,3.074,0,6c0,0,3.511.741,4-1,0,0,1.354-4.032-1-5V34h6ZM21,14s-3.074-2.245-3,1C21.052,17.477,21,14,21,14Zm0,12s-3.266-2.156-3,1C20.188,29.579,21,26,21,26Zm4,16s-1.013-2.948-2,0C24.223,45.332,25,42,25,42Zm9,8s4.319,8.16,10-2c0,0,11.3,1.827,7-7V35H40V28s-4.2-2.742,0-5c0,0,2.258-2.082,4,1,0,0,1.446,3.285-1,4l-1,1v4H53v5s7.642-4.952,0-10c0,0,10.245-15.181-6-19,0,0-3.8-11.29-13-4v8H44s4.284-4.782,7,1c0,0,.428,4.331-4,4,0,0-2.629-.691-3-2H34V41h5s3.127-5.773,7,0c0,0,.887,4.244-3,4,0,0-2.48,1.335-4-2H34v7ZM33,2S26.826-2.928,20,3L16,6s-8.467,4.6-8,9c0,0-2.485,3.551,0,7,0,0,1.821,3.669,1,5s-4.131,9.318,3,12c0,0,2,1.379,0,4,0,0-.642,5.215,8,8,0,0,4.022,7.825,12,3l1-1s5.782,6.82,12-1l1-2s11.166,2.053,8-10c0,0,9.952-5.013,2-13,0,0,10.494-15.492-8-20C48,7,42.9-4.82,33,2Zm9,24s0.232-3.082-2-1C39.306,28.331,42,26,42,26Zm7-11s-1.3-4.013-3,0C47.375,17.188,49,15,49,15ZM44,42s-1.594-3.14-3,0C42,45.621,44,42,44,42Z"/>
  <path id="Color_Fill_2" data-name="Color Fill 2" class="cls-2" d="M33,4l6-3,5,2,3,4,1,2h3l4,3,3,4v4l-2,5-1,2,1,3,1,2s0.306,2.657,0,3-3,4-3,4l-1,1v7l-4,2H44s-1.323,2.752-2,3-4,2-4,2l-4-2-1-2V4ZM43,24H40l-1,2,1,1h2Zm5-12-2,2a1.309,1.309,0,0,0-1,1c-0.026.748,2,2,2,2s1.415-.651,2-1a4.443,4.443,0,0,0,1-2l-2-2h0ZM43,39l-3,2,1,2,1,1h2l1-2V40Z"/>
</svg>
