<svg xmlns="http://www.w3.org/2000/svg" width="66" height="56" viewBox="0 0 66 56">
  <defs>
    <style>
      .cls-1, .cls-2 {
        fill: #ffc552;
        fill-rule: evenodd;
      }

      .cls-2 {
        opacity: 0.3;
      }
    </style>
  </defs>
  <path id="Color_Fill_1" data-name="Color Fill 1" class="cls-1" d="M7,53s0.292-6.06,3-18c0,0,2.559-11.705,2-17a3.375,3.375,0,0,1,3-4l14-4,8-8s3.239-3.309,6,0L61,21s1.306,1.5-1,4l-7,7L48,45a6.1,6.1,0,0,1-6,4s-7.885.358-12,2L11,54S7.087,55.268,7,53Zm5-8s5.551-21.437,4-26l16-5L48,30,43,44s-20.909,2.573-27,6L28,38s5.544,1.769,8-2a5.712,5.712,0,0,0,1-7s-0.7-4.247-7-5c0,0-7.091.105-7,6,0,0,.064,3.986,2,4ZM28,33s-1.427-2.412,0-4a3.5,3.5,0,0,1,5,0s1.6,2.2,0,4C33,33,29.882,35.374,28,33Zm7-22,5-5L56,22l-5,5Z"/>
  <path id="Color_Fill_2" data-name="Color Fill 2" class="cls-2" d="M10,47l6-30,17-4L49,29,44,46,16,51l-3-3L26,36l8-1,1-4-1-4-5-1-3,3v4l-4,5Z"/>
</svg>
